# xmcd
#
# Track frame offsets:
#	150
#	12718
#	26214
#	39637
#	56784
#	65960
#	79203
#	88879
#	99264
#	112236
#	126092
#	141263
#
# Disc length: 2023 seconds
#
# Revision: 0
# Processed by: cddbd v1.5.2PL0 Copyright (c) Steve Scherf et al.
# Submitted via: dBpowerAMP V4.0
#
DISCID=b807e50c
DTITLE=Various Artist - Country Gospel Disc 3
DYEAR=2010
DGENRE=Gospel
TTITLE0=He Touched me - Singing Gospelaires
TTITLE1=Lifes Railway to Heaven - Patsy Cline
TTITLE2=Amazing Grace - Johnny Paycheck
TTITLE3=Great Speckled Bird - Mac Wiseman
TTITLE4=Joshua Fought - Tommy Overstreet
TTITLE5=You cant be a beacon - Wilma Burgess
TTITLE6=Hes got the whole world - Tommy Overstreet
TTITLE7=When God dips his love - Mac Wiseman
TTITLE8=Softly and Tenderly - Tommy Overstreet
TTITLE9=Just a closer walk - Tommy Overstreet
TTITLE10=His hand in mine - Singing Gospelaires
TTITLE11=People get ready - Tommy Daugherty
EXTD=
EXTT0=
EXTT1=
EXTT2=
EXTT3=
EXTT4=
EXTT5=
EXTT6=
EXTT7=
EXTT8=
EXTT9=
EXTT10=
EXTT11=
PLAYORDER=
